<mxfile host="app.diagrams.net" modified="2023-11-21T08:02:32.948Z" agent="Mozilla/5.0 (Windows NT 10.0; Win64; x64) AppleWebKit/537.36 (KHTML, like Gecko) Chrome/119.0.0.0 Safari/537.36 Edg/119.0.0.0" etag="Z36pDdqowPE-bDqwmQM4" version="22.1.3" type="github">
  <diagram name="第 1 页" id="w1vq6Upd6r6xi0LEZnEr">
    <mxGraphModel dx="792" dy="439" grid="1" gridSize="10" guides="1" tooltips="1" connect="1" arrows="1" fold="1" page="1" pageScale="1" pageWidth="827" pageHeight="1169" math="0" shadow="0">
      <root>
        <mxCell id="0" />
        <mxCell id="1" parent="0" />
        <mxCell id="Tw3LLWzdlx8d3jvECWK7-5" value="创建保点单" style="swimlane;childLayout=stackLayout;resizeParent=1;resizeParentMax=0;startSize=20;html=1;" parent="1" vertex="1">
          <mxGeometry x="250.00000000000045" y="280" width="480" height="190" as="geometry" />
        </mxCell>
        <mxCell id="Tw3LLWzdlx8d3jvECWK7-6" value="零售系统" style="swimlane;startSize=20;html=1;fillColor=#dae8fc;strokeColor=#6c8ebf;" parent="Tw3LLWzdlx8d3jvECWK7-5" vertex="1">
          <mxGeometry y="20" width="120" height="170" as="geometry" />
        </mxCell>
        <mxCell id="Tw3LLWzdlx8d3jvECWK7-15" style="edgeStyle=orthogonalEdgeStyle;rounded=0;orthogonalLoop=1;jettySize=auto;html=1;exitX=0.5;exitY=1;exitDx=0;exitDy=0;entryX=0.5;entryY=0;entryDx=0;entryDy=0;" parent="Tw3LLWzdlx8d3jvECWK7-6" source="Tw3LLWzdlx8d3jvECWK7-10" target="Tw3LLWzdlx8d3jvECWK7-11" edge="1">
          <mxGeometry relative="1" as="geometry" />
        </mxCell>
        <mxCell id="Tw3LLWzdlx8d3jvECWK7-10" value="&lt;font style=&quot;font-size: 16px;&quot;&gt;开始&lt;/font&gt;" style="rounded=1;whiteSpace=wrap;html=1;fillColor=#dae8fc;strokeColor=#6c8ebf;" parent="Tw3LLWzdlx8d3jvECWK7-6" vertex="1">
          <mxGeometry x="15" y="40" width="90" height="30" as="geometry" />
        </mxCell>
        <mxCell id="Tw3LLWzdlx8d3jvECWK7-11" value="&lt;font style=&quot;font-size: 14px;&quot;&gt;选择&lt;br&gt;供应商承担&lt;/font&gt;" style="rounded=0;whiteSpace=wrap;html=1;fillColor=#dae8fc;strokeColor=#6c8ebf;" parent="Tw3LLWzdlx8d3jvECWK7-6" vertex="1">
          <mxGeometry x="15" y="100" width="90" height="40" as="geometry" />
        </mxCell>
        <mxCell id="Tw3LLWzdlx8d3jvECWK7-7" value="OFC" style="swimlane;startSize=20;html=1;fillColor=#d5e8d4;strokeColor=#82b366;" parent="Tw3LLWzdlx8d3jvECWK7-5" vertex="1">
          <mxGeometry x="120" y="20" width="120" height="170" as="geometry" />
        </mxCell>
        <mxCell id="Tw3LLWzdlx8d3jvECWK7-12" value="&lt;span style=&quot;font-size: 14px;&quot;&gt;接收数据&lt;/span&gt;" style="rounded=0;whiteSpace=wrap;html=1;fillColor=#d5e8d4;strokeColor=#82b366;" parent="Tw3LLWzdlx8d3jvECWK7-7" vertex="1">
          <mxGeometry x="15" y="100" width="90" height="40" as="geometry" />
        </mxCell>
        <mxCell id="Tw3LLWzdlx8d3jvECWK7-8" value="OMS" style="swimlane;startSize=20;html=1;fillColor=#ffe6cc;strokeColor=#d79b00;" parent="Tw3LLWzdlx8d3jvECWK7-5" vertex="1">
          <mxGeometry x="240" y="20" width="120" height="170" as="geometry" />
        </mxCell>
        <mxCell id="Tw3LLWzdlx8d3jvECWK7-13" value="&lt;span style=&quot;font-size: 14px;&quot;&gt;接收数据&lt;/span&gt;" style="rounded=0;whiteSpace=wrap;html=1;fillColor=#ffe6cc;strokeColor=#d79b00;" parent="Tw3LLWzdlx8d3jvECWK7-8" vertex="1">
          <mxGeometry x="15" y="100" width="90" height="40" as="geometry" />
        </mxCell>
        <mxCell id="Tw3LLWzdlx8d3jvECWK7-19" value="SRM" style="swimlane;startSize=20;html=1;fillColor=#f8cecc;strokeColor=#b85450;" parent="Tw3LLWzdlx8d3jvECWK7-5" vertex="1">
          <mxGeometry x="360" y="20" width="120" height="170" as="geometry" />
        </mxCell>
        <mxCell id="Ofajfuxz6T54fhWEDpyB-4" style="edgeStyle=orthogonalEdgeStyle;rounded=0;orthogonalLoop=1;jettySize=auto;html=1;exitX=0.5;exitY=1;exitDx=0;exitDy=0;entryX=0.5;entryY=0;entryDx=0;entryDy=0;" edge="1" parent="Tw3LLWzdlx8d3jvECWK7-19" source="Tw3LLWzdlx8d3jvECWK7-20" target="Ofajfuxz6T54fhWEDpyB-1">
          <mxGeometry relative="1" as="geometry" />
        </mxCell>
        <mxCell id="Tw3LLWzdlx8d3jvECWK7-20" value="&lt;span style=&quot;font-size: 14px;&quot;&gt;供应商保点优惠信息&lt;/span&gt;" style="rounded=0;whiteSpace=wrap;html=1;fillColor=#f8cecc;strokeColor=#b85450;" parent="Tw3LLWzdlx8d3jvECWK7-19" vertex="1">
          <mxGeometry x="15" y="30" width="90" height="40" as="geometry" />
        </mxCell>
        <mxCell id="Ofajfuxz6T54fhWEDpyB-5" style="edgeStyle=orthogonalEdgeStyle;rounded=0;orthogonalLoop=1;jettySize=auto;html=1;exitX=0.5;exitY=1;exitDx=0;exitDy=0;entryX=0.5;entryY=0;entryDx=0;entryDy=0;" edge="1" parent="Tw3LLWzdlx8d3jvECWK7-19" source="Ofajfuxz6T54fhWEDpyB-1" target="Ofajfuxz6T54fhWEDpyB-2">
          <mxGeometry relative="1" as="geometry" />
        </mxCell>
        <mxCell id="Ofajfuxz6T54fhWEDpyB-1" value="&lt;span style=&quot;font-size: 14px;&quot;&gt;活动主表&lt;/span&gt;" style="rounded=0;whiteSpace=wrap;html=1;fillColor=#f8cecc;strokeColor=#b85450;" vertex="1" parent="Tw3LLWzdlx8d3jvECWK7-19">
          <mxGeometry x="15" y="80" width="95" height="30" as="geometry" />
        </mxCell>
        <mxCell id="Ofajfuxz6T54fhWEDpyB-2" value="&lt;span style=&quot;font-size: 14px;&quot;&gt;活动子表&lt;/span&gt;" style="rounded=0;whiteSpace=wrap;html=1;fillColor=#f8cecc;strokeColor=#b85450;" vertex="1" parent="Tw3LLWzdlx8d3jvECWK7-19">
          <mxGeometry x="12.5" y="130" width="95" height="30" as="geometry" />
        </mxCell>
        <mxCell id="Tw3LLWzdlx8d3jvECWK7-16" style="edgeStyle=orthogonalEdgeStyle;rounded=0;orthogonalLoop=1;jettySize=auto;html=1;exitX=1;exitY=0.5;exitDx=0;exitDy=0;" parent="Tw3LLWzdlx8d3jvECWK7-5" source="Tw3LLWzdlx8d3jvECWK7-11" target="Tw3LLWzdlx8d3jvECWK7-12" edge="1">
          <mxGeometry relative="1" as="geometry" />
        </mxCell>
        <mxCell id="Tw3LLWzdlx8d3jvECWK7-17" style="edgeStyle=orthogonalEdgeStyle;rounded=0;orthogonalLoop=1;jettySize=auto;html=1;exitX=1;exitY=0.5;exitDx=0;exitDy=0;" parent="Tw3LLWzdlx8d3jvECWK7-5" source="Tw3LLWzdlx8d3jvECWK7-12" target="Tw3LLWzdlx8d3jvECWK7-13" edge="1">
          <mxGeometry relative="1" as="geometry" />
        </mxCell>
        <mxCell id="Ofajfuxz6T54fhWEDpyB-6" style="edgeStyle=orthogonalEdgeStyle;rounded=0;orthogonalLoop=1;jettySize=auto;html=1;exitX=1;exitY=0.5;exitDx=0;exitDy=0;entryX=0;entryY=0.5;entryDx=0;entryDy=0;" edge="1" parent="Tw3LLWzdlx8d3jvECWK7-5" source="Tw3LLWzdlx8d3jvECWK7-13" target="Tw3LLWzdlx8d3jvECWK7-20">
          <mxGeometry relative="1" as="geometry">
            <Array as="points">
              <mxPoint x="355" y="140" />
              <mxPoint x="355" y="70" />
            </Array>
          </mxGeometry>
        </mxCell>
        <mxCell id="Tw3LLWzdlx8d3jvECWK7-22" value="通过/驳回保点单" style="swimlane;childLayout=stackLayout;resizeParent=1;resizeParentMax=0;startSize=20;html=1;" parent="1" vertex="1">
          <mxGeometry x="250.00000000000045" y="630" width="600" height="190" as="geometry" />
        </mxCell>
        <mxCell id="Tw3LLWzdlx8d3jvECWK7-23" value="零售系统" style="swimlane;startSize=20;html=1;fillColor=#dae8fc;strokeColor=#6c8ebf;" parent="Tw3LLWzdlx8d3jvECWK7-22" vertex="1">
          <mxGeometry y="20" width="120" height="170" as="geometry" />
        </mxCell>
        <mxCell id="Tw3LLWzdlx8d3jvECWK7-44" value="&lt;span style=&quot;font-size: 14px;&quot;&gt;更新审核结果&lt;/span&gt;" style="rounded=0;whiteSpace=wrap;html=1;fillColor=#dae8fc;strokeColor=#6c8ebf;" parent="Tw3LLWzdlx8d3jvECWK7-23" vertex="1">
          <mxGeometry x="15" y="100" width="90" height="40" as="geometry" />
        </mxCell>
        <mxCell id="Tw3LLWzdlx8d3jvECWK7-27" value="OFC" style="swimlane;startSize=20;html=1;fillColor=#d5e8d4;strokeColor=#82b366;" parent="Tw3LLWzdlx8d3jvECWK7-22" vertex="1">
          <mxGeometry x="120" y="20" width="120" height="170" as="geometry" />
        </mxCell>
        <mxCell id="Tw3LLWzdlx8d3jvECWK7-43" value="&lt;span style=&quot;font-size: 14px;&quot;&gt;接收数据&lt;/span&gt;" style="rounded=0;whiteSpace=wrap;html=1;fillColor=#d5e8d4;strokeColor=#82b366;" parent="Tw3LLWzdlx8d3jvECWK7-27" vertex="1">
          <mxGeometry x="15" y="100" width="90" height="40" as="geometry" />
        </mxCell>
        <mxCell id="Tw3LLWzdlx8d3jvECWK7-29" value="OMS" style="swimlane;startSize=20;html=1;fillColor=#ffe6cc;strokeColor=#d79b00;" parent="Tw3LLWzdlx8d3jvECWK7-22" vertex="1">
          <mxGeometry x="240" y="20" width="120" height="170" as="geometry" />
        </mxCell>
        <mxCell id="Tw3LLWzdlx8d3jvECWK7-42" value="&lt;span style=&quot;font-size: 14px;&quot;&gt;接收数据&lt;/span&gt;" style="rounded=0;whiteSpace=wrap;html=1;fillColor=#ffe6cc;strokeColor=#d79b00;" parent="Tw3LLWzdlx8d3jvECWK7-29" vertex="1">
          <mxGeometry x="15" y="100" width="90" height="40" as="geometry" />
        </mxCell>
        <mxCell id="Tw3LLWzdlx8d3jvECWK7-31" value="SRM" style="swimlane;startSize=20;html=1;fillColor=#e1d5e7;strokeColor=#9673a6;" parent="Tw3LLWzdlx8d3jvECWK7-22" vertex="1">
          <mxGeometry x="360" y="20" width="120" height="170" as="geometry" />
        </mxCell>
        <mxCell id="Ofajfuxz6T54fhWEDpyB-14" style="edgeStyle=orthogonalEdgeStyle;rounded=0;orthogonalLoop=1;jettySize=auto;html=1;exitX=0.5;exitY=1;exitDx=0;exitDy=0;entryX=0.5;entryY=0;entryDx=0;entryDy=0;" edge="1" parent="Tw3LLWzdlx8d3jvECWK7-31" source="Ofajfuxz6T54fhWEDpyB-11" target="Ofajfuxz6T54fhWEDpyB-12">
          <mxGeometry relative="1" as="geometry" />
        </mxCell>
        <mxCell id="Ofajfuxz6T54fhWEDpyB-11" value="&lt;span style=&quot;font-size: 14px;&quot;&gt;更新活动状态&lt;/span&gt;" style="rounded=0;whiteSpace=wrap;html=1;fillColor=#e1d5e7;strokeColor=#9673a6;" vertex="1" parent="Tw3LLWzdlx8d3jvECWK7-31">
          <mxGeometry x="16.25" y="50" width="92.5" height="30" as="geometry" />
        </mxCell>
        <mxCell id="Ofajfuxz6T54fhWEDpyB-12" value="&lt;span style=&quot;font-size: 14px;&quot;&gt;通知下游&lt;/span&gt;" style="rounded=0;whiteSpace=wrap;html=1;fillColor=#e1d5e7;strokeColor=#9673a6;" vertex="1" parent="Tw3LLWzdlx8d3jvECWK7-31">
          <mxGeometry x="16.25" y="105" width="92.5" height="30" as="geometry" />
        </mxCell>
        <mxCell id="Ofajfuxz6T54fhWEDpyB-7" value="VSS" style="swimlane;startSize=20;html=1;fillColor=#f8cecc;strokeColor=#b85450;" vertex="1" parent="Tw3LLWzdlx8d3jvECWK7-22">
          <mxGeometry x="480" y="20" width="120" height="170" as="geometry" />
        </mxCell>
        <mxCell id="Ofajfuxz6T54fhWEDpyB-8" style="edgeStyle=orthogonalEdgeStyle;rounded=0;orthogonalLoop=1;jettySize=auto;html=1;exitX=0.5;exitY=1;exitDx=0;exitDy=0;entryX=0.5;entryY=0;entryDx=0;entryDy=0;" edge="1" parent="Ofajfuxz6T54fhWEDpyB-7" source="Ofajfuxz6T54fhWEDpyB-9" target="Ofajfuxz6T54fhWEDpyB-10">
          <mxGeometry relative="1" as="geometry" />
        </mxCell>
        <mxCell id="Ofajfuxz6T54fhWEDpyB-9" value="&lt;span style=&quot;font-size: 14px;&quot;&gt;审核保点单&lt;/span&gt;" style="rounded=0;whiteSpace=wrap;html=1;fillColor=#f8cecc;strokeColor=#b85450;" vertex="1" parent="Ofajfuxz6T54fhWEDpyB-7">
          <mxGeometry x="15" y="40" width="90" height="40" as="geometry" />
        </mxCell>
        <mxCell id="Ofajfuxz6T54fhWEDpyB-10" value="通过/驳回" style="rhombus;whiteSpace=wrap;html=1;fillColor=#f8cecc;strokeColor=#b85450;" vertex="1" parent="Ofajfuxz6T54fhWEDpyB-7">
          <mxGeometry x="30" y="100" width="60" height="40" as="geometry" />
        </mxCell>
        <mxCell id="Tw3LLWzdlx8d3jvECWK7-47" style="edgeStyle=orthogonalEdgeStyle;rounded=0;orthogonalLoop=1;jettySize=auto;html=1;exitX=0;exitY=0.5;exitDx=0;exitDy=0;" parent="Tw3LLWzdlx8d3jvECWK7-22" source="Tw3LLWzdlx8d3jvECWK7-42" target="Tw3LLWzdlx8d3jvECWK7-43" edge="1">
          <mxGeometry relative="1" as="geometry" />
        </mxCell>
        <mxCell id="Tw3LLWzdlx8d3jvECWK7-48" style="edgeStyle=orthogonalEdgeStyle;rounded=0;orthogonalLoop=1;jettySize=auto;html=1;exitX=0;exitY=0.5;exitDx=0;exitDy=0;" parent="Tw3LLWzdlx8d3jvECWK7-22" source="Tw3LLWzdlx8d3jvECWK7-43" target="Tw3LLWzdlx8d3jvECWK7-44" edge="1">
          <mxGeometry relative="1" as="geometry" />
        </mxCell>
        <mxCell id="Ofajfuxz6T54fhWEDpyB-13" style="edgeStyle=orthogonalEdgeStyle;rounded=0;orthogonalLoop=1;jettySize=auto;html=1;exitX=0;exitY=0.5;exitDx=0;exitDy=0;entryX=1;entryY=0.5;entryDx=0;entryDy=0;" edge="1" parent="Tw3LLWzdlx8d3jvECWK7-22" source="Ofajfuxz6T54fhWEDpyB-10" target="Ofajfuxz6T54fhWEDpyB-11">
          <mxGeometry relative="1" as="geometry" />
        </mxCell>
        <mxCell id="Ofajfuxz6T54fhWEDpyB-15" style="edgeStyle=orthogonalEdgeStyle;rounded=0;orthogonalLoop=1;jettySize=auto;html=1;exitX=0;exitY=0.5;exitDx=0;exitDy=0;" edge="1" parent="Tw3LLWzdlx8d3jvECWK7-22" source="Ofajfuxz6T54fhWEDpyB-12" target="Tw3LLWzdlx8d3jvECWK7-42">
          <mxGeometry relative="1" as="geometry" />
        </mxCell>
      </root>
    </mxGraphModel>
  </diagram>
</mxfile>
